<?xml version="1.0" standalone="no"?>
<!DOCTYPE svg PUBLIC "-//W3C//DTD SVG 20010904//EN"
 "http://www.w3.org/TR/2001/REC-SVG-20010904/DTD/svg10.dtd">
<svg version="1.0" xmlns="http://www.w3.org/2000/svg"
 width="512.000000pt" height="512.000000pt" viewBox="0 0 512.000000 512.000000"
 preserveAspectRatio="xMidYMid meet">
<metadata>
Created by potrace 1.11, written by Peter Selinger 2001-2013
</metadata>
<g transform="translate(0.000000,512.000000) scale(0.100000,-0.100000)"
fill="#000000" stroke="none">
<path d="M2715 5114 c-315 -33 -560 -102 -818 -230 -690 -343 -1149 -1005
-1228 -1772 -17 -163 -7 -455 21 -612 68 -384 239 -748 499 -1060 46 -55 86
-100 90 -100 4 0 155 151 336 336 264 271 323 335 300 330 -28 -5 -597 -89
-695 -102 l-45 -6 246 248 c135 137 299 312 365 389 249 294 443 488 669 668
265 213 453 296 678 300 l98 2 -5 25 c-23 103 -28 144 -23 211 17 226 175 421
396 489 80 25 224 27 302 4 151 -44 290 -155 348 -277 122 -257 51 -551 -172
-708 -106 -74 -176 -94 -327 -94 -112 1 -132 4 -194 28 -37 15 -70 27 -72 27
-2 0 -4 -16 -4 -35 0 -50 -37 -217 -67 -300 -143 -398 -555 -893 -1088 -1306
-208 -162 -478 -348 -657 -454 -37 -22 -68 -43 -68 -48 0 -15 158 -110 305
-182 227 -111 413 -169 680 -211 149 -23 469 -23 620 0 648 98 1203 452 1558
991 161 246 258 485 324 800 35 166 44 553 18 733 -47 325 -165 640 -342 907
-359 542 -902 890 -1544 990 -100 15 -422 28 -504 19z"/>
<path d="M3618 4161 c-152 -49 -259 -152 -318 -306 -33 -86 -33 -226 0 -310
63 -164 188 -277 349 -315 99 -23 282 1 328 44 9 8 -39 52 -192 176 -112 91
-204 170 -204 175 -1 6 100 111 224 235 124 124 225 228 225 232 0 11 -88 54
-149 72 -72 21 -191 20 -263 -3z"/>
<path d="M3885 3840 l-209 -209 25 -19 c13 -11 98 -81 189 -155 127 -105 168
-134 180 -127 24 13 93 107 124 168 61 121 58 288 -8 425 -19 40 -47 84 -63
99 l-29 28 -209 -210z m247 -17 c20 -58 17 -208 -5 -266 -22 -56 -51 -77 -75
-54 -13 14 -13 21 7 67 26 59 30 149 11 219 -14 53 -8 71 24 71 19 0 27 -8 38
-37z"/>
<path d="M3080 3430 c-137 -17 -216 -44 -347 -122 -166 -97 -304 -210 -526
-427 -181 -177 -437 -463 -437 -488 0 -4 61 -69 135 -143 l135 -135 228 230
c844 854 1022 1035 1022 1042 0 40 -87 57 -210 43z"/>
<path d="M2764 2743 c-319 -324 -600 -610 -624 -636 l-44 -48 85 -85 85 -85
505 513 c601 612 638 658 639 804 0 55 -3 63 -33 92 l-34 33 -579 -588z"/>
<path d="M3295 2837 c-16 -18 -243 -250 -504 -515 l-475 -484 55 -48 54 -48
50 41 c28 23 136 127 241 232 200 199 338 363 449 535 65 99 172 306 164 314
-2 3 -17 -10 -34 -27z"/>
<path d="M1545 2170 c-93 -94 -165 -170 -160 -170 28 -1 575 85 575 90 0 3
-55 60 -123 128 l-122 122 -170 -170z"/>
<path d="M1945 1910 c-54 -54 -96 -102 -93 -105 6 -7 289 40 321 53 15 6 6 19
-54 80 -40 39 -72 72 -73 72 -1 0 -46 -45 -101 -100z"/>
<path d="M1998 1753 l-248 -44 -277 -282 c-153 -155 -372 -378 -488 -495
l-210 -212 55 -53 c30 -29 126 -123 213 -208 87 -84 156 -147 153 -139 -3 8
-28 128 -56 265 -28 138 -53 257 -56 266 -3 12 13 25 58 49 436 229 846 493
1206 778 14 11 11 17 -28 58 -25 25 -52 49 -60 53 -8 4 -125 -12 -262 -36z"/>
<path d="M445 384 c-153 -156 -276 -286 -274 -288 5 -4 998 120 1004 125 2 3
-99 105 -224 227 l-229 221 -277 -285z"/>
</g>
</svg>
